<svg id="Layer_1" enable-background="new 0 0 512 512" height="512" viewBox="0 0 512 512" width="512" xmlns="http://www.w3.org/2000/svg" style="fill: #fff"><path d="m80 348v144c0 11.046-8.954 20-20 20s-20-8.954-20-20v-127.427c-23.281-8.255-40-30.498-40-56.573v-109c0-33.084 26.916-60 60-60h80c33.084 0 60 26.916 60 60 0 11.046-8.954 20-20 20s-20-8.954-20-20c0-11.028-8.972-20-20-20h-80c-11.028 0-20 8.972-20 20v109c0 11.028 8.972 20 20 20 11.046 0 20 8.954 20 20zm60 50c-11.046 0-20 8.954-20 20v74c0 11.046 8.954 20 20 20s20-8.954 20-20v-74c0-11.046-8.954-20-20-20zm-100-338c0-33.084 26.916-60 60-60s60 26.916 60 60-26.916 60-60 60-60-26.916-60-60zm40 0c0 11.028 8.972 20 20 20s20-8.972 20-20-8.972-20-20-20-20 8.972-20 20zm292 338c-11.046 0-20 8.954-20 20v74c0 11.046 8.954 20 20 20s20-8.954 20-20v-74c0-11.046-8.954-20-20-20zm80-259h-80c-33.084 0-60 26.916-60 60 0 11.046 8.954 20 20 20s20-8.954 20-20c0-11.028 8.972-20 20-20h80c11.028 0 20 8.972 20 20v109c0 11.028-8.972 20-20 20-11.046 0-20 8.954-20 20v144c0 11.046 8.954 20 20 20s20-8.954 20-20v-127.427c23.281-8.255 40-30.498 40-56.573v-109c0-33.084-26.916-60-60-60zm-100-79c0-33.084 26.916-60 60-60s60 26.916 60 60-26.916 60-60 60-60-26.916-60-60zm40 0c0 11.028 8.972 20 20 20s20-8.972 20-20-8.972-20-20-20-20 8.972-20 20zm-9 261.367c0-12.212-4.786-23.661-13.477-32.239-.038-.038-.077-.075-.115-.113l-31.258-30.361c-7.923-7.695-20.585-7.51-28.281.412-7.696 7.923-7.511 20.585.412 28.281l13.955 13.555h-137.739l13.85-13.664c7.863-7.758 7.948-20.421.191-28.284-7.758-7.862-20.42-7.948-28.284-.19l-30.777 30.365c-8.69 8.578-13.477 20.027-13.477 32.239s4.786 23.661 13.418 32.182l30.773 30.627c3.903 3.884 9.005 5.824 14.108 5.824 5.134 0 10.269-1.965 14.176-5.892 7.792-7.829 7.762-20.492-.067-28.284l-14.994-14.923h140.434l-14.861 15.042c-7.763 7.858-7.687 20.521.171 28.284 3.897 3.851 8.978 5.772 14.055 5.772 5.159 0 10.316-1.983 14.229-5.943l30.185-30.553c8.624-8.567 13.373-19.975 13.373-32.137z"/></svg>